<?xml version="1.0" encoding="UTF-8"?>
<svg xmlns="http://www.w3.org/2000/svg" width="13px" height="13px" viewBox="0 0 13 13" version="1.1">
<g id="surface1">
<path style=" stroke:none;fill-rule:nonzero;fill:rgb(54.117647%,20.784314%,76.078431%);fill-opacity:1;" d="M 6.09375 2.074219 C 6.140625 2.007812 6.222656 1.976562 6.300781 2.003906 C 6.378906 2.027344 6.433594 2.097656 6.433594 2.179688 L 6.433594 10.230469 C 6.433594 10.332031 6.347656 10.414062 6.246094 10.414062 L 5.730469 10.414062 C 5.625 10.414062 5.542969 10.332031 5.542969 10.230469 L 5.542969 7.773438 L 3.203125 7.773438 L 1.410156 10.335938 C 1.375 10.386719 1.320312 10.414062 1.257812 10.414062 L 0.570312 10.414062 C 0.511719 10.414062 0.453125 10.382812 0.425781 10.328125 C 0.398438 10.273438 0.402344 10.210938 0.4375 10.160156 Z M 3.824219 6.882812 L 5.542969 6.882812 L 5.542969 4.421875 Z M 7.414062 4.597656 C 7.414062 4.492188 7.496094 4.410156 7.601562 4.410156 L 10.140625 4.410156 C 10.867188 4.410156 11.511719 4.878906 11.738281 5.570312 C 11.960938 6.257812 11.71875 7.015625 11.132812 7.445312 C 11.550781 7.945312 11.800781 8.800781 11.820312 10.226562 C 11.820312 10.277344 11.800781 10.324219 11.765625 10.359375 C 11.730469 10.394531 11.683594 10.414062 11.632812 10.414062 L 11.117188 10.414062 C 11.011719 10.414062 10.929688 10.332031 10.929688 10.226562 C 10.90625 8.839844 10.65625 8.253906 10.441406 8.007812 C 10.246094 7.785156 10.023438 7.773438 9.710938 7.773438 L 8.304688 7.773438 L 8.304688 10.230469 C 8.304688 10.332031 8.222656 10.414062 8.117188 10.414062 L 7.601562 10.414062 C 7.496094 10.414062 7.414062 10.332031 7.414062 10.230469 Z M 8.304688 6.882812 L 10.140625 6.882812 C 10.574219 6.882812 10.929688 6.527344 10.929688 6.089844 C 10.929688 5.65625 10.574219 5.300781 10.140625 5.300781 L 8.304688 5.300781 Z M 8.304688 6.882812 "/>
</g>
</svg>
